PathFileType	4	(X/Y/Z)	/Users/itak/Documents/Research/Walk-IL/dataset/trc/00200_00008.trc
DataRate	CameraRate	NumFrames	NumMarkers	Units	OrigDataRate	OrigDataStartFrame	OrigNumFrames
100.000000	100.000000	4	53	mm	100.000000	343	550
Frame#	Time	RPSI			LPSI			L3			STRN			T10			C7			CLAV			RBAK			LBAK			LSHO			LUPA			LAEL			LAOL			LWTS			LWPS			LFRA			LIFD			LHPS			LHTS			RSHO			RUPA			RAEL			RAOL			RWTS			RWPS			RFRA			RIFD			RHTS			RHPS			RBHD			LFHD			RFHD			LBHD			LHIP			RHIP			RASI			LASI			LKNE			LTHI			LANK			LTIP			LTOE			LMT1			LMT5			LHEE			RKNE			RTHI			RANK			RTIP			RTOE			RMT1			RMT5			RHEE			
		X1	Y1	Z1	X2	Y2	Z2	X3	Y3	Z3	X4	Y4	Z4	X5	Y5	Z5	X6	Y6	Z6	X7	Y7	Z7	X8	Y8	Z8	X9	Y9	Z9	X10	Y10	Z10	X11	Y11	Z11	X12	Y12	Z12	X13	Y13	Z13	X14	Y14	Z14	X15	Y15	Z15	X16	Y16	Z16	X17	Y17	Z17	X18	Y18	Z18	X19	Y19	Z19	X20	Y20	Z20	X21	Y21	Z21	X22	Y22	Z22	X23	Y23	Z23	X24	Y24	Z24	X25	Y25	Z25	X26	Y26	Z26	X27	Y27	Z27	X28	Y28	Z28	X29	Y29	Z29	X30	Y30	Z30	X31	Y31	Z31	X32	Y32	Z32	X33	Y33	Z33	X34	Y34	Z34	X35	Y35	Z35	X36	Y36	Z36	X37	Y37	Z37	X38	Y38	Z38	X39	Y39	Z39	X40	Y40	Z40	X41	Y41	Z41	X42	Y42	Z42	X43	Y43	Z43	X44	Y44	Z44	X45	Y45	Z45	X46	Y46	Z46	X47	Y47	Z47	X48	Y48	Z48	X49	Y49	Z49	X50	Y50	Z50	X51	Y51	Z51	X52	Y52	Z52	X53	Y53	Z53	

344	3.43	-190.379638671875	1040.571411132812	111.7622146606445	-111.663200378418	1042.576904296875	17.67246055603027	-154.781494140625	1078.807983398438	64.16404724121094	20.51458740234375	1300.996826171875	242.9013977050781	-180.1965026855469	1232.549560546875	28.56790351867676	-145.7011413574219	1505.216064453125	67.76703643798828	-3.598649978637695	1412.942260742188	217.4485931396484	-255.5358734130859	1320.002685546875	92.6671142578125	-75.005615234375	1487.80322265625	-6.365858554840088	35.62828826904297	1483.307495117188	-4.422755718231201	73.08183288574219	1350.722900390625	-74.90567016601562	102.1681060791016	1136.207397460938	-71.43851470947266	20.84786605834961	1116.99462890625	-38.70407867431641	172.1578826904297	896.7030029296875	0.01373903080821037	128.1392059326172	885.091064453125	-82.068603515625	119.8153533935547	1027.683959960938	-80.79373931884766	157.3546600341797	709.3352661132812	8.843201637268066	140.1107940673828	813.7385864257812	-72.8863525390625	187.7294006347656	816.8040161132812	-16.93512535095215	-231.6529235839844	1474.8798828125	237.1441345214844	-291.6434631347656	1404.366088867188	264.4800720214844	-339.3233032226562	1117.734619140625	283.3894348144531	-260.4212646484375	1109.530517578125	223.8444671630859	-238.3480529785156	897.4237060546875	394.4766235351562	-319.3461608886719	877.1497802734375	360.8464660644531	-338.77197265625	1046.724609375	316.5290832519531	-205.6056518554688	709.4569091796875	396.0345764160156	-227.1038970947266	805.19287109375	423.7332458496094	-299.1404418945312	796.646240234375	385.9851989746094	-182.7306671142578	1656.067749023438	160.8326568603516	9.690450668334961	1736.046020507812	214.1526184082031	-88.65929412841797	1712.605712890625	294.83642578125	-87.71575927734375	1688.161254882812	70.10142517089844	46.16653442382812	985.0810546875	-4.208710193634033	-149.0550231933594	1008.130187988281	309.2915344238281	-53.47234344482422	1037.434936523438	318.0550842285156	105.2709274291992	1033.231811523438	114.945442199707	118.9033889770508	492.0588073730469	2.235299348831177	113.1713790893555	639.2821655273438	1.630107164382935	-214.0803527832031	233.7309265136719	-240.9314117431641	-26.52477264404297	355.8627014160156	-123.5884628295898	-117.8888778686523	58.0638313293457	-164.3176422119141	-165.7323455810547	97.65620422363281	-134.3736572265625	-155.2285308837891	136.4491119384766	-251.5766906738281	-268.7790222167969	276.7918395996094	-193.4983215332031	-30.26949691772461	514.3704223632812	328.8758239746094	-78.75196838378906	785.7316284179688	363.8619079589844	-23.61397552490234	27.29172706604004	226.5551910400391	-0.006857105065137148	393.347412109375	322.1404113769531	122.9438171386719	50.82803726196289	393.2672119140625	134.6616821289062	55.15771484375	323.2898254394531	10.40873050689697	33.15349197387695	338.2544860839844	6.632162570953369	33.29045486450195	148.501953125	
345	3.44	-185.7965240478516	1041.640258789062	117.8148956298828	-105.6541900634766	1043.697631835938	24.74596405029297	-149.276611328125	1079.895751953125	70.89382171630859	24.95526123046875	1302.124389648438	250.3572845458984	-174.8819885253906	1233.692016601562	35.45416259765625	-140.47119140625	1506.35791015625	74.73225402832031	1.071689605712891	1414.1044921875	224.7528228759766	-250.5527648925781	1321.248901367188	99.32859039306641	-69.63108062744141	1488.899780273438	0.8139980435371399	40.96237182617188	1484.279907226562	2.940166234970093	78.20760345458984	1351.55859375	-67.50652313232422	106.2935028076172	1136.98291015625	-63.88584136962891	24.81768417358398	1118.207153320312	-31.26613616943359	173.7225036621094	896.3890991210938	6.67844295501709	130.5379028320312	885.9822387695312	-75.95713043212891	123.2044296264648	1028.505615234375	-73.65674591064453	156.2572021484375	708.87744140625	13.6770715713501	141.5686798095703	814.3836059570312	-67.25273895263672	188.4676971435547	816.3460693359375	-10.65908622741699	-227.2256469726562	1476.32666015625	243.7034301757812	-287.1038818359375	1405.765258789062	271.1124572753906	-334.4064331054688	1118.924072265625	291.1756591796875	-255.5583648681641	1110.746948242188	231.6243591308594	-231.2059783935547	900.75732421875	404.5324096679688	-311.9847412109375	879.155029296875	370.9808654785156	-333.2450561523438	1048.080810546875	324.9339294433594	-196.2752685546875	713.3118286132812	408.722412109375	-219.0986022949219	809.1248168945312	435.0016784667969	-290.7942504882812	799.2142333984375	397.1667785644531	-177.7142333984375	1657.14697265625	167.7039337158203	14.40346622467041	1737.03955078125	222.1670227050781	-84.35036468505859	1713.412231445312	302.312744140625	-82.20398712158203	1689.455810546875	77.54084777832031	52.72814559936523	986.1546630859375	4.077206134796143	-145.4315643310547	1008.873901367188	315.8620910644531	-50.00009918212891	1038.478637695312	325.3333435058594	110.351448059082	1034.710815429688	123.5214614868164	133.0638580322266	493.2608337402344	17.83738708496094	124.6545257568359	640.4855346679688	14.95326805114746	-197.27099609375	233.8284606933594	-227.6574401855469	-10.91323375701904	356.7343139648438	-108.6472549438477	-98.17231750488281	61.2025032043457	-148.3010711669922	-147.4879760742188	99.67849731445312	-119.2847747802734	-136.0093841552734	137.8700256347656	-236.5154724121094	-253.3302459716797	276.3682556152344	-181.3277893066406	-29.20195388793945	514.136474609375	331.3331909179688	-76.04206085205078	785.5905151367188	369.1964416503906	-23.70106506347656	27.23083305358887	226.6001739501953	0.6330594420433044	393.119384765625	323.8251037597656	123.0904922485352	50.65431976318359	393.1426696777344	134.58056640625	55.01321792602539	323.1094665527344	10.30929279327393	33.06511688232422	338.2899780273438	6.383420467376709	33.42773818969727	148.575927734375	
346	3.45	-181.1042022705078	1042.660522460938	123.6338806152344	-99.56279754638672	1044.83154296875	31.61048889160156	-143.7486572265625	1080.95166015625	77.40544891357422	29.28593063354492	1303.263549804688	257.7673034667969	-169.545166015625	1234.806518554688	42.17779541015625	-135.2796173095703	1507.464233398438	81.56988525390625	5.669371604919434	1415.276611328125	231.9763946533203	-245.5893707275391	1322.457397460938	105.8281631469727	-64.28959655761719	1489.997924804688	7.894684791564941	46.24380111694336	1485.268188476562	10.22550868988037	83.23838043212891	1352.45654296875	-60.31790542602539	110.274040222168	1137.78662109375	-56.66317367553711	28.6566104888916	1119.421264648438	-24.12816619873047	175.5663909912109	896.382080078125	13.41374588012695	133.2651672363281	886.8707885742188	-69.70708465576172	126.6164169311523	1029.321899414062	-66.70716094970703	156.1697540283203	708.8195190429688	19.06376075744629	143.5502471923828	815.0899658203125	-61.33861923217773	189.7514038085938	816.26806640625	-4.1577467918396	-222.8818511962891	1477.782592773438	250.0889892578125	-282.6656494140625	1407.171020507812	277.5569763183594	-329.4876098632812	1120.118774414062	298.8463745117188	-250.6961212158203	1111.986450195312	239.3091583251953	-224.0846710205078	904.1343994140625	414.4479675292969	-304.6185913085938	881.2200317382812	380.998046875	-327.7194519042969	1049.46044921875	333.213134765625	-186.9681243896484	717.24560546875	421.1125183105469	-211.1162567138672	813.0913696289062	446.0547790527344	-282.45947265625	801.856201171875	408.1748657226562	-172.7171630859375	1658.280639648438	174.4418334960938	19.13587951660156	1737.980346679688	230.0541381835938	-80.03878784179688	1714.213134765625	309.66064453125	-76.66881561279297	1690.731079101562	84.86070251464844	59.32395553588867	987.361572265625	12.28977489471436	-142.1574096679688	1009.481994628906	322.1749877929688	-46.9493522644043	1039.446533203125	332.5643005371094	115.2936935424805	1036.16259765625	132.3042449951172	146.7617034912109	494.6786804199219	33.57864761352539	135.8498229980469	641.8231201171875	28.35279655456543	-179.9317321777344	232.6427764892578	-213.9021759033203	4.677806377410889	357.2102661132812	-93.41156005859375	-77.81957244873047	63.58261489868164	-131.1840515136719	-128.6762084960938	100.8351745605469	-103.3071517944336	-116.105224609375	138.1722869873047	-220.6204986572266	-237.4336242675781	274.6189880371094	-168.843505859375	-28.35144805908203	513.8878173828125	333.5814514160156	-73.73207855224609	785.3092651367188	374.3435974121094	-23.7652587890625	27.18903541564941	226.6477813720703	1.140017032623291	392.9044799804688	325.3486633300781	123.3113174438477	50.41324996948242	393.0097351074219	134.5451202392578	54.79318237304688	322.9367370605469	10.21347236633301	32.98689270019531	338.3269348144531	6.147631168365479	33.57172775268555	148.6412200927734	
347	3.46	-176.2229766845703	1043.605346679688	129.2717132568359	-93.41230010986328	1045.922241210938	38.28662872314453	-138.2090759277344	1081.95166015625	83.72966003417969	33.51803970336914	1304.385864257812	265.1485290527344	-164.1859893798828	1235.878540039062	48.75935363769531	-130.1136322021484	1508.5224609375	88.29038238525391	10.20235252380371	1416.428344726562	239.1409454345703	-240.6391296386719	1323.61328125	112.1750793457031	-58.96024322509766	1491.081298828125	14.89442157745361	51.49508285522461	1486.25244140625	17.46209716796875	88.20248413085938	1353.398803710938	-53.30900192260742	114.133186340332	1138.597290039062	-49.75706100463867	32.38579559326172	1120.633544921875	-17.28616523742676	177.7311859130859	896.6409301757812	20.18728446960449	136.2571258544922	887.705322265625	-63.31886672973633	130.0458526611328	1030.109252929688	-59.94762802124023	157.1052093505859	709.0899047851562	25.02413940429688	145.9923248291016	815.8004150390625	-55.13656234741211	191.5927886962891	816.5106811523438	2.532943248748779	-218.5948486328125	1479.21142578125	256.3215026855469	-278.322021484375	1408.5517578125	283.8222351074219	-324.5886535644531	1121.285766601562	306.4053344726562	-245.8401794433594	1113.213012695312	246.9031829833984	-216.997314453125	907.5195922851562	424.2103881835938	-297.251708984375	883.3104248046875	390.8873901367188	-322.2120666503906	1050.825073242188	341.3644714355469	-177.6847381591797	721.2227783203125	433.1899719238281	-203.1554107666016	817.0581665039062	456.8827819824219	-274.1448669433594	804.5323486328125	418.9965515136719	-167.7476959228516	1659.453857421875	181.0494537353516	23.88533782958984	1738.86083984375	237.8086090087891	-75.72244262695312	1715.0048828125	316.8765869140625	-71.11814117431641	1691.960815429688	92.06063842773438	65.94819641113281	988.6513671875	20.44937324523926	-139.2097778320312	1009.934753417969	328.2493591308594	-44.31081390380859	1040.29443359375	339.7567749023438	120.0982131958008	1037.553588867188	141.2852020263672	159.9807739257812	496.2834777832031	49.43856430053711	146.7721557617188	643.2711791992188	41.81368637084961	-162.0677642822266	230.2108459472656	-199.6593170166016	20.21795082092285	357.2882080078125	-77.88877105712891	-56.88576126098633	65.20091247558594	-113.013313293457	-109.3370971679688	101.1545181274414	-86.47274780273438	-95.56145477294922	137.423583984375	-203.9160614013672	-221.1038513183594	271.5586853027344	-156.0466918945312	-27.68081855773926	513.6122436523438	335.6435241699219	-71.77977752685547	784.8825073242188	379.2969665527344	-23.80013465881348	27.1737232208252	226.6992340087891	1.561809062957764	392.6889343261719	326.7279663085938	123.6102981567383	50.090087890625	392.8652648925781	134.5690612792969	54.48308944702148	322.7785339355469	10.12702369689941	32.92255783081055	338.3636169433594	5.943437576293945	33.71755599975586	148.69482421875	
